# xmcd
#
# Track frame offsets: 
#        150
#        18376
#        36735
#        55602
#        82180
#        97795
#        117338
#        142899
#        160422
#        181745
#        199197
#
# Disc length: 3088 seconds
#
# Revision: 1
# Processed by: cddbd v1.5.2PL0 Copyright (c) Steve Scherf et al.
# Submitted via: ExactAudioCopy v0.99pb5
#
DISCID=8e0c0e0b
DTITLE=Faust - Die Weichen sind gestellt
DYEAR=2005
DGENRE=Rock
TTITLE0=Willkommen
TTITLE1=Der Himmel ist leer
TTITLE2=Wir können nicht fliegen
TTITLE3=Die Welt ist stumm
TTITLE4=Gesellschaftlicher Sklave
TTITLE5=Spiel des Lebens
TTITLE6=Freiheit
TTITLE7=Auf meiner Haut
TTITLE8=Dieser Ort
TTITLE9=So nicht
TTITLE10=Gedanken im Regen
EXTD=
EXTT0=
EXTT1=
EXTT2=
EXTT3=
EXTT4=
EXTT5=
EXTT6=
EXTT7=
EXTT8=
EXTT9=
EXTT10=
PLAYORDER=
